<?xml version="1.0" encoding="utf-8"?>
<!-- Generator: Adobe Illustrator 17.0.0, SVG Export Plug-In . SVG Version: 6.00 Build 0)  -->
<!DOCTYPE svg PUBLIC "-//W3C//DTD SVG 1.1//EN" "http://www.w3.org/Graphics/SVG/1.1/DTD/svg11.dtd">
<svg version="1.1" id="Layer_1" xmlns="http://www.w3.org/2000/svg" xmlns:xlink="http://www.w3.org/1999/xlink" x="0px" y="0px"
	 width="521.056px" height="77.887px" viewBox="0 0 521.056 77.887" enable-background="new 0 0 521.056 77.887"
	 xml:space="preserve">
<g>
	<g>
		<g>
			<path fill="#FFFFFF" d="M94.754,41.153c-11.983,0-19.455-8.045-19.455-17.018c0-8.612,8.147-18.367,19.664-18.367
				c4.877,0,10.014,1.97,11.102,2.803c0.364,0.311,0.88,4.046,0.987,7.263c0,0.257-0.831,0.207-0.884,0.051
				c-0.881-4.045-4.719-8.559-12.452-8.559c-7.78,0-13.645,5.498-13.645,14.889c0,11.468,7.732,17.279,15.152,17.279
				c5.394,0,10.738-3.218,11.154-8.51c0-0.154,0.986-0.209,0.986,0.103c-0.157,3.216-0.677,6.952-1.087,7.263
				C104.405,39.75,101.137,41.153,94.754,41.153z"/>
			<path fill="#FFFFFF" d="M123.81,40.32c-0.313,0.103-0.155-0.985,0-0.985c1.763-0.212,2.852,0.049,2.852-0.988
				c0-1.192-0.673-2.903-1.349-4.877l-0.936-2.749h-8.401l-1.194,2.749c-0.986,2.285-1.556,3.788-1.556,4.828
				c0,0.881,0.984,0.881,2.647,1.038c0.259,0,0.259,1.088-0.055,0.985c-1.191-0.154-2.801-0.209-4.462-0.209
				c-2.23,0-2.593,0-4.304,0.209c-0.311,0.053-0.156-0.985,0-0.985c2.592-0.212,3.942-1.61,5.914-5.967l8.612-18.834
				c0.104-0.259,0.621-0.312,0.727,0l7.471,18.834c1.866,4.184,1.586,5.685,4.693,5.967c0.154,0.014,0.26,1.088-0.053,0.985
				c-1.246-0.154-2.202-0.209-3.914-0.209C128.269,40.112,125.469,40.112,123.81,40.32z M116.595,29.163h7.214l-3.218-8.712
				L116.595,29.163z"/>
			<path fill="#FFFFFF" d="M135.514,38.644c-0.22-0.141-0.306-3.047-0.375-5.8c-0.021-0.261,0.916-0.234,0.926-0.13
				c0.635,3.904,2.96,6.834,6.996,6.502c2.791-0.232,4.567-2.046,4.36-4.528c-0.535-6.464-11.908-5.518-12.495-12.602
				c-0.296-3.569,2.604-7.505,7.361-7.9c2.275-0.186,3.779,0.366,5.189,1.028c0.327,0.183,0.915,2.267,1.135,4.905
				c0.011,0.154-1.023,0.24-1.035,0.086c-0.7-2.806-2.726-4.616-5.518-4.387c-2.429,0.202-4.141,1.542-3.944,3.92
				c0.515,6.205,11.668,5.125,12.286,12.57c0.351,4.238-2.653,8.183-7.565,8.591C139.988,41.138,137.671,40.182,135.514,38.644z"/>
			<path fill="#FFFFFF" d="M169.225,40.32c-1.45,0-3.89-0.209-6.796-0.209c-3.943,0-8.664,0-11.567,0.209
				c-0.31,0-0.157-0.985,0-0.985c3.944-0.467,4.305-0.988,4.305-5.916V21.695c0-4.927-0.361-5.55-4.305-5.966
				c-0.157,0-0.31-1.09,0-1.038c2.904,0.26,7.469,0.312,11.412,0.312c2.803,0,5.501-0.106,7.887-0.312
				c-0.26,0.832-0.26,1.92-0.26,2.697c0,0.418-0.053,1.557,0,1.816c0,0.105-0.986,0.157-0.986,0.055
				c-0.31-1.715-0.933-2.542-5.964-2.542h-3.375c-0.156,0.881-0.206,2.33-0.206,4.771v4.773h2.592c4.36,0,4.67-0.105,5.086-1.765
				c0-0.103,0.983-0.156,0.933,0.104c-0.156,0.573-0.207,2.179-0.207,3.06c0,0.468,0,1.869,0,2.232
				c0.101,0.052-0.987,0.104-0.987,0.052c-0.361-2.023-0.674-2.178-4.825-2.178h-2.592v5.136c0,4.98,0.259,5.446,2.022,5.446h2.022
				c5.967,0,6.124-0.829,6.694-3.369c0-0.054,1.038-0.054,1.038,0.1c-0.157,0.989-0.573,3.529-0.83,4.306
				C170.161,40.166,169.901,40.32,169.225,40.32z"/>
		</g>
		<g>
			<path fill="#FFFFFF" d="M360.597,14.732c-1.142,0.159-2.906,0.262-4.564,0.262c-2.283,0-3.581,0-5.137-0.262
				c-0.315-0.103-0.315,0.936-0.054,0.989c3.371,0.361,3.892,1.504,3.892,5.964v12.086l-18.108-18.726
				c-2.229,0-5.24-0.051-6.847-0.313c-0.311-0.103-0.209,0.989-0.052,0.989c1.762,0.207,5.032,2.594,5.032,4.358v13.335
				c0,4.235-0.668,5.483-3.429,5.748c-0.062,0.011-0.425,0.027-0.687-0.158c-5.917-4.854-5.847-7.958-7.238-11.506
				c3.061-1.296,4.929-3.84,4.929-6.432c0-4.151-3.741-6.064-10.741-6.382c-3.972-0.183-8.207-0.341-10.53,0.088
				c-0.312,0.057-0.052,1.038,0.156,0.934c0.57-0.104,1.057-0.024,1.47-0.024c1.815,0,2.628,1.49,2.628,6.005v11.728
				c0,4.927-0.621,5.548-3.994,5.91c-0.156,0-0.312,1.092,0,0.987c1.662-0.208,4.203-0.208,6.487-0.208
				c1.658,0,4.304,0.051,5.497,0.208c0.311,0.104,0.207-0.987,0.055-0.987c-3.533-0.312-3.893-1.245-3.893-5.91v-4.361
				c0.467,0.053,0.725,0.053,1.504,0.053c0.779,0,1.972-0.155,2.904-0.308c1.616,5.773,7.317,10.655,9.87,11.486
				c0.046,0.016,0.343,0.046,0.343,0.046l0.7-0.025c0.01,0,3.35-0.201,5.63-0.201c1.608,0,3.012,0.051,4.203,0.208
				c0.311,0.104,0.208-0.987,0.105-0.987c-3.58-0.312-3.943-1.761-3.943-5.91V20.905l19.349,19.666
				c0.315,0.309,0.935,0.103,0.935-0.052c-0.209-1.663-0.259-5.189-0.259-7.106V21.685c0-4.15,0.312-5.708,3.941-5.964
				C360.858,15.721,361.116,14.683,360.597,14.732z M316.901,27.601c-0.674,0-0.984-0.055-1.451-0.055v-6.225
				c0-2.803,0.104-4.306,0.312-5.033c0.568-0.05,0.725-0.101,1.293-0.101c4.517,0,7.007,1.554,7.007,5.914
				C324.063,25.628,322.04,27.601,316.901,27.601z"/>
			<path fill="#FFFFFF" d="M246.317,38.85c-0.213-0.151-0.17-1.146-0.085-3.901c-0.006-0.257,0.886-0.167,0.934-0.075
				c1.658,3.421,2.661,4.516,6.508,4.343c2.259-0.105,4.576-1.783,4.511-4.272c-0.161-6.483-11.571-6.195-11.751-13.302
				c-0.09-3.578,3.032-7.342,7.804-7.462c2.283-0.058,3.751,0.581,5.119,1.326c0.318,0.198,0.785,2.315,0.85,4.962
				c0.005,0.155-1.03,0.182-1.036,0.024c-0.538-2.839-2.455-4.764-5.255-4.692c-2.438,0.06-4.224,1.298-4.163,3.685
				c0.158,6.224,11.355,5.787,11.54,13.254c0.111,4.252-3.013,8.02-7.943,8.145C250.501,40.955,248.381,40.508,246.317,38.85z"/>
			<path fill="#FFFFFF" d="M211.098,40.776c-0.103,0.263-0.724,0.365-0.88-0.049l-7.835-21.997l-9.701,22.046
				c-0.103,0.263-0.777,0.365-0.934-0.049l-10.013-25.006c-2.492-6.226-3.321-7.993-7.419-8.355c-0.258,0-0.466-0.934,0.053-0.882
				c1.451,0.21,3.526,0.31,5.552,0.31c2.799,0,6.276-0.05,8.3-0.31c0.518-0.052,0.206,0.882,0.051,0.882
				c-2.385,0.209-3.685,0.521-3.685,1.919c0,1.092,1.193,4.671,1.87,6.332l7.417,18.469l7.681-17.743l-0.261-0.622
				c-2.541-6.071-3.11-7.993-7.053-8.355c-0.159,0-0.367-0.934,0.049-0.882c1.505,0.21,3.529,0.31,5.554,0.31
				c2.799,0,6.743-0.05,8.765-0.31c0.417-0.102,0.259,0.882,0.104,0.882c-3.217,0.261-4.254,0.622-4.254,2.18
				c0,1.143,0.52,3.008,1.556,6.071l6.279,18.469l7.42-18.729c1.191-3.062,1.865-4.668,1.865-6.018c0-1.297-0.827-1.712-3.371-1.973
				c-0.156,0-0.466-0.934,0.053-0.882c1.503,0.21,3.061,0.31,5.137,0.31c2.853,0,2.799-0.05,4.876-0.31
				c0.415-0.102,0.208,0.882,0.053,0.882c-3.268,0.311-4.306,2.543-6.747,8.355L211.098,40.776z"/>
			<path fill="#FFFFFF" d="M242.225,40.311c-1.452,0-3.889-0.208-6.795-0.208c-3.942,0-8.663,0-11.569,0.208
				c-0.311,0-0.155-0.987,0-0.987c3.943-0.466,4.306-0.983,4.306-5.91V21.685c0-4.926-0.363-5.551-4.306-5.964
				c-0.155,0-0.311-1.092,0-1.038c2.906,0.257,7.471,0.311,11.412,0.311c2.805,0,5.501-0.102,7.888-0.311
				c-0.257,0.829-0.257,1.917-0.257,2.696c0,0.413-0.053,1.556,0,1.818c0,0.104-0.988,0.156-0.988,0.05
				c-0.311-1.712-0.934-2.543-5.964-2.543h-3.374c-0.154,0.882-0.207,2.335-0.207,4.774v4.773h2.595
				c4.355,0,4.669-0.104,5.083-1.762c0-0.105,0.987-0.157,0.934,0.101c-0.153,0.57-0.208,2.181-0.208,3.064c0,0.465,0,1.865,0,2.229
				c0.104,0.051-0.984,0.104-0.984,0.051c-0.362-2.022-0.676-2.177-4.825-2.177h-2.595v5.134c0,4.983,0.26,5.45,2.022,5.45h2.025
				c5.964,0,6.122-0.829,6.69-3.374c0-0.053,1.038-0.053,1.038,0.103c-0.155,0.986-0.568,3.528-0.83,4.309
				C243.16,40.154,242.903,40.311,242.225,40.311z"/>
			<path fill="#FFFFFF" d="M284.518,19.867c0,0.159-0.935,0.105-0.935,0c-0.365-1.709-1.074-2.901-5.227-2.901h-2.785v16.447
				c0,4.615,0.312,5.598,3.942,5.91c0.155,0,0.261,1.037-0.155,0.987c-1.193-0.157-3.841-0.208-5.499-0.208
				c-2.23,0-4.774,0-6.383,0.208c-0.417,0.104-0.206-0.987-0.051-0.987c3.423-0.362,3.942-1.038,3.942-5.91V16.966h-2.996
				c-3.992,0-4.913,1.139-5.43,2.953c-0.206,0.054-0.989,0.054-0.934-0.102c0.155-0.829,0.294-2.802,0.258-3.89
				c-0.007-0.237-0.103-0.665-0.207-1.128c-0.036-0.162,0.807-0.155,0.934-0.05c0.803,0.65,2.103,0.392,5.379,0.398h9.984
				c3.146-0.006,5.062,0.252,5.485-0.398c0.089-0.142,1.038-0.105,0.934,0.102c-0.207,0.831-0.312,1.283-0.312,2.58
				C284.463,18.054,284.463,19.352,284.518,19.867z"/>
			<path fill="#FFFFFF" d="M304.128,40.311c-1.452,0-3.89-0.208-6.799-0.208c-3.941,0-8.662,0-11.568,0.208
				c-0.309,0-0.155-0.987,0-0.987c3.944-0.466,4.308-0.983,4.308-5.91V21.685c0-4.926-0.363-5.551-4.308-5.964
				c-0.155,0-0.309-1.092,0-1.038c2.906,0.257,7.471,0.311,11.414,0.311c2.802,0,5.501-0.102,7.889-0.311
				c-0.263,0.829-0.263,1.917-0.263,2.696c0,0.413-0.052,1.556,0,1.818c0,0.104-0.985,0.156-0.985,0.05
				c-0.31-1.712-0.935-2.543-5.965-2.543h-3.373c-0.156,0.882-0.21,2.335-0.21,4.774v4.773h2.596c4.36,0,4.67-0.104,5.085-1.762
				c0-0.105,0.985-0.157,0.933,0.101c-0.155,0.57-0.205,2.181-0.205,3.064c0,0.465,0,1.865,0,2.229
				c0.104,0.051-0.987,0.104-0.987,0.051c-0.363-2.022-0.674-2.177-4.825-2.177h-2.596v5.134c0,4.983,0.263,5.45,2.025,5.45h2.022
				c5.968,0,6.125-0.829,6.694-3.374c0-0.053,1.036-0.053,1.036,0.103c-0.154,0.986-0.57,3.528-0.829,4.309
				C305.063,40.154,304.801,40.311,304.128,40.311z"/>
		</g>
		<g>
			<path fill="#FFFFFF" d="M418.355,38.859c-0.211-0.147-0.171-1.145-0.083-3.897c-0.007-0.261,0.888-0.169,0.931-0.073
				c1.66,3.416,2.662,4.515,6.511,4.338c2.257-0.104,4.573-1.784,4.514-4.271c-0.165-6.483-11.575-6.196-11.754-13.301
				c-0.088-3.58,3.033-7.341,7.803-7.463c2.284-0.057,3.754,0.582,5.12,1.326c0.316,0.199,0.787,2.313,0.854,4.959
				c0.001,0.156-1.034,0.183-1.04,0.027c-0.537-2.839-2.453-4.764-5.254-4.694c-2.439,0.06-4.223,1.3-4.163,3.684
				c0.155,6.226,11.353,5.79,11.541,13.258c0.107,4.253-3.016,8.019-7.941,8.145C422.538,40.969,420.421,40.523,418.355,38.859z"/>
			<path fill="#FFFFFF" d="M381.477,24.963c-0.882,0.212-2.075,0.261-3.217,0.261c-0.984,0-1.297-0.049-1.972-0.103v6.125
				c0,7.416-0.051,7.782,4.775,8.197c0.261,0,0.362,1.088-0.054,0.985c-1.657-0.209-4.252-0.312-6.43-0.312
				c-3.065,0-5.449,0-7.628,0.312c-0.518,0.051-0.31-0.935-0.052-0.985c4.567-0.52,4.875-0.415,4.875-8.197v-15.62
				c0-5.86-0.153-7.677-3.111-7.677c-0.519,0-1.246,0.052-1.973,0.208c-0.154,0.051-0.569-0.779-0.049-0.934
				c2.125-0.676,7.312-0.883,12.968-0.883c7.578,0,13.801,2.282,13.801,8.092c0,2.906-2.331,7.318-7.73,9.496
				c5.033,7.056,5.312,22.281,17.934,23.111c1.863,0.119,2.114-0.011,4.004-0.521c0.319-0.084,0.754,0.728,0.363,0.881
				c-2.793,1.101-4.583,1.31-7.273,1.093C386.983,47.375,385.784,31.502,381.477,24.963z M376.654,7.895
				c-0.263,1.038-0.366,3.425-0.366,7.263v8.612c0.675,0.055,1.09,0,1.921,0c7.833,0,10.53-2.852,10.53-7.108
				c0-7.055-4.614-8.924-9.803-8.924C378.159,7.739,377.534,7.794,376.654,7.895z"/>
			<path fill="#FFFFFF" d="M413.991,40.322c-1.453,0-3.891-0.208-6.797-0.208c-3.941,0-8.026,0-10.93,0.208
				c-0.313,0-0.155-0.987,0-0.987c3.942-0.467,3.668-0.985,3.668-5.915V21.696c0-4.928-0.363-5.55-4.308-5.965
				c-0.153,0-0.312-1.089,0-1.041c2.907,0.262,7.472,0.314,11.417,0.314c2.801,0,5.496-0.107,7.883-0.314
				c-0.258,0.833-0.258,1.921-0.258,2.701c0,0.414-0.053,1.556,0,1.815c0,0.104-0.986,0.155-0.986,0.053
				c-0.311-1.713-0.934-2.542-5.964-2.542h-3.375c-0.158,0.881-0.207,2.332-0.207,4.771v4.775h2.595
				c4.357,0,4.671-0.104,5.083-1.765c0-0.104,0.984-0.154,0.935,0.105c-0.155,0.572-0.209,2.177-0.209,3.058c0,0.471,0,1.87,0,2.233
				c0.105,0.052-0.983,0.104-0.983,0.052c-0.364-2.023-0.677-2.178-4.825-2.178h-2.595v5.136c0,4.981,0.258,5.447,2.022,5.447h2.025
				c5.964,0,6.122-0.83,6.692-3.372c0-0.054,1.035-0.054,1.035,0.103c-0.154,0.987-0.568,3.53-0.829,4.306
				C414.925,40.169,414.667,40.322,413.991,40.322z"/>
			<path fill="#FFFFFF" d="M452.722,40.322c-1.451,0-3.888-0.208-6.796-0.208c-3.942,0-8.663,0-11.567,0.208
				c-0.312,0-0.157-0.987,0-0.987c3.942-0.467,4.305-0.985,4.305-5.915V21.696c0-4.928-0.362-5.55-4.305-5.965
				c-0.157,0-0.312-1.089,0-1.041c2.904,0.262,7.468,0.314,11.413,0.314c2.801,0,5.499-0.107,7.886-0.314
				c-0.262,0.833-0.262,1.921-0.262,2.701c0,0.414-0.049,1.556,0,1.815c0,0.104-0.985,0.155-0.985,0.053
				c-0.31-1.713-0.934-2.542-5.964-2.542h-3.373c-0.156,0.881-0.205,2.332-0.205,4.771v4.775h2.591c4.359,0,4.669-0.104,5.087-1.765
				c0-0.104,0.986-0.154,0.931,0.105c-0.155,0.572-0.206,2.177-0.206,3.058c0,0.471,0,1.87,0,2.233
				c0.103,0.052-0.985,0.104-0.985,0.052c-0.366-2.023-0.672-2.178-4.826-2.178h-2.591v5.136c0,4.981,0.257,5.447,2.02,5.447h2.025
				c5.967,0,6.121-0.83,6.693-3.372c0-0.054,1.039-0.054,1.039,0.103c-0.158,0.987-0.574,3.53-0.833,4.306
				C453.657,40.169,453.396,40.322,452.722,40.322z"/>
			<path fill="#FFFFFF" d="M464.951,29.116c-0.776,0-1.036,0-1.501-0.052v4.356c0,4.671,0.358,5.606,3.889,5.915
				c0.156,0,0.262,1.091-0.053,0.987c-1.193-0.153-3.836-0.208-5.5-0.208c-2.283,0-4.823,0-6.485,0.208
				c-0.309,0.104-0.153-0.987,0-0.987c3.372-0.362,3.996-0.985,3.996-5.915V21.696c0-4.512-0.823-6.056-2.64-6.056
				c-0.416,0-0.404,0.009-0.974,0.113c-0.207,0.104-0.458-0.849-0.154-0.934c1.783-0.493,6.065-0.101,10.046-0.129
				c7.001-0.043,10.74,2.233,10.74,6.384c0,2.592-1.869,5.136-4.932,6.434c2.078,5.292,7.642,12.452,12.158,12.452
				c0.154,0,0.311,0.986,0,0.986c-8.51,0-13.973-6.021-15.687-12.143C466.925,28.96,465.73,29.116,464.951,29.116z M463.759,16.3
				c-0.207,0.728-0.309,2.233-0.309,5.034v6.225c0.465,0,0.775,0.053,1.451,0.053c5.134,0,7.16-1.972,7.16-5.5
				c0-4.357-2.492-5.914-7.006-5.914C464.487,16.197,464.33,16.246,463.759,16.3z"/>
			<path fill="#FFFFFF" d="M489.878,40.583c-0.053,0.153-0.676,0.258-0.832-0.053l-8.194-18.78
				c-1.867-4.257-3.064-5.758-6.173-6.019c-0.158,0-0.315-1.089,0-0.988c1.242,0.154,3.578,0.262,5.185,0.262
				c2.282,0,5.139,0,6.694-0.262c0.311-0.101,0.311,0.936,0.05,0.988c-1.712,0.206-2.695,0.309-2.695,1.346
				c0,0.729,0.205,2.078,1.296,4.569l5.655,12.813l5.602-12.813c1.246-2.908,1.404-3.634,1.404-4.569
				c0-0.88-0.832-1.191-2.543-1.346c-0.156,0-0.314-1.089,0-0.988c1.193,0.154,2.801,0.262,4.457,0.262
				c2.337,0,2.467-0.053,4.254-0.03c0.329,0.003,0.263,0.757,0.106,0.757c-2.436,0.261-3.839,1.453-5.861,6.019L489.878,40.583z"/>
			<path fill="#FFFFFF" d="M519.136,40.322c-1.453,0-3.891-0.208-6.798-0.208c-3.942,0-8.662,0-11.567,0.208
				c-0.313,0-0.158-0.987,0-0.987c3.941-0.467,4.304-0.985,4.304-5.915V21.696c0-4.928-0.362-5.55-4.304-5.965
				c-0.158,0-0.287-0.753,0.029-0.757c2.837-0.044,7.438,0.03,11.383,0.03c2.802,0,5.499-0.107,7.886-0.314
				c-0.26,0.833-0.26,1.921-0.26,2.701c0,0.414-0.051,1.556,0,1.815c0,0.104-0.984,0.155-0.984,0.053
				c-0.312-1.713-0.934-2.542-5.967-2.542h-3.373c-0.154,0.881-0.207,2.332-0.207,4.771v4.775h2.596
				c4.356,0,4.668-0.104,5.082-1.765c0-0.104,0.984-0.154,0.936,0.105c-0.154,0.572-0.209,2.177-0.209,3.058c0,0.471,0,1.87,0,2.233
				c0.105,0.052-0.984,0.104-0.984,0.052c-0.364-2.023-0.677-2.178-4.824-2.178h-2.596v5.136c0,4.981,0.258,5.447,2.022,5.447h2.025
				c5.965,0,6.123-0.83,6.692-3.372c0-0.054,1.038-0.054,1.038,0.103c-0.154,0.987-0.571,3.53-0.832,4.306
				C520.069,40.169,519.81,40.322,519.136,40.322z"/>
		</g>
		<g>
			<path fill="#FFFFFF" d="M95.3,61.706c0,4.034-3.046,7.44-8.347,7.44c-4.591,0-8.508-2.893-8.508-7.641v-6.962
				c0-3.76-0.433-4.272-3.004-4.587c-0.12,0-0.199-0.794,0.036-0.715c1.227,0.199,3.125,0.16,4.907,0.16
				c1.264,0,3.245-0.042,4.193-0.16c0.24-0.079,0.24,0.715,0.042,0.715c-2.692,0.235-2.928,1.027-2.928,4.587v6.291
				c0,4.626,3.004,6.685,6.052,6.685c3.995,0,6.094-2.135,6.094-6.209v-7.042c0-3.404-0.435-3.997-3.007-4.312
				c-0.195-0.042-0.195-0.794,0.038-0.715c1.228,0.199,2.138,0.16,3.878,0.16c1.23,0,2.533-0.042,3.443-0.16
				c0.317-0.038,0.16,0.715,0.079,0.715c-2.729,0.235-2.968,1.105-2.968,4.312V61.706"/>
			<path fill="#FFFFFF" d="M131.45,63.446c0,1.462,0.038,4.155,0.196,5.417c0,0.121-0.475,0.282-0.711,0.042l-14.761-14.994v9.535
				c0,3.163,0.279,4.272,3.008,4.509c0.08,0,0.159,0.831-0.079,0.751c-0.91-0.117-1.977-0.155-3.204-0.155
				c-1.741,0-3.006,0-4.275,0.155c-0.196,0.043-0.117-0.751,0-0.751c2.613-0.274,3.008-1.146,3.008-4.509v-10.17
				c0-1.344-2.493-3.161-3.837-3.32c-0.12,0-0.199-0.832,0.039-0.753c1.228,0.198,3.523,0.237,5.223,0.237l13.809,14.286v-9.221
				c0-3.401-0.396-4.273-2.97-4.548c-0.195-0.042-0.195-0.832,0.04-0.753c1.188,0.198,2.176,0.198,3.918,0.198
				c1.268,0,2.61-0.082,3.485-0.198c0.392-0.041,0.195,0.753,0.117,0.753c-2.769,0.197-3.007,1.381-3.007,4.548V63.446"/>
			<path fill="#FFFFFF" d="M154.232,68.55c-1.782,0-3.678,0-4.947,0.155c-0.318,0.08-0.119-0.751-0.042-0.751
				c2.613-0.274,3.008-0.79,3.008-4.509v-8.942c0-3.76-0.395-4.273-3.008-4.548c-0.077,0-0.233-0.794,0.082-0.753
				c1.229,0.198,3.125,0.198,4.907,0.198c1.186,0,3.244-0.082,4.155-0.198c0.317-0.041,0.156,0.753,0.077,0.753
				c-2.73,0.197-3.006,1.027-3.006,4.548v8.942c0,3.519,0.276,4.272,3.006,4.509c0.08,0,0.241,0.794-0.077,0.751
				C157.476,68.589,155.418,68.55,154.232,68.55"/>
			<path fill="#FFFFFF" d="M183.445,68.905c-0.042,0.121-0.52,0.199-0.635-0.042l-6.253-14.32c-1.423-3.243-2.334-4.39-4.706-4.587
				c-0.118,0-0.241-0.832,0-0.753c0.947,0.116,2.729,0.198,3.956,0.198c1.743,0,3.918,0,5.105-0.198
				c0.236-0.079,0.236,0.711,0.038,0.753c-1.303,0.159-2.055,0.235-2.055,1.027c0,0.552,0.159,1.579,0.988,3.48l4.312,9.774
				l4.273-9.774c0.95-2.214,1.067-2.769,1.067-3.48c0-0.673-0.634-0.909-1.939-1.027c-0.117,0-0.237-0.832,0-0.753
				c0.912,0.116,2.137,0.198,3.403,0.198c1.781,0,2.057,0,3.284-0.198c0.238-0.079,0.161,0.753,0.039,0.753
				c-1.857,0.197-2.925,1.105-4.471,4.587L183.445,68.905"/>
			<path fill="#FFFFFF" d="M220.531,68.706c-1.111,0-2.968-0.155-5.183-0.155c-3.006,0-6.609,0-8.824,0.155
				c-0.239,0-0.118-0.751,0-0.751c3.006-0.354,3.286-0.752,3.286-4.509v-8.942c0-3.76-0.28-4.234-3.286-4.548
				c-0.118,0-0.239-0.832,0-0.794c2.215,0.197,5.697,0.239,8.704,0.239c2.137,0,4.191-0.082,6.014-0.239
				c-0.195,0.636-0.195,1.462-0.195,2.056c0,0.317-0.041,1.191,0,1.386c0,0.08-0.753,0.117-0.753,0.041
				c-0.238-1.307-0.713-1.941-4.551-1.941h-2.572c-0.12,0.675-0.159,1.783-0.159,3.641v3.641h1.978c3.325,0,3.561-0.077,3.878-1.347
				c0-0.078,0.75-0.116,0.713,0.08c-0.119,0.436-0.162,1.661-0.162,2.334c0,0.356,0,1.427,0,1.702
				c0.082,0.041-0.746,0.079-0.746,0.041c-0.279-1.545-0.52-1.663-3.683-1.663h-1.978v3.918c0,3.797,0.195,4.152,1.541,4.152h1.544
				c4.551,0,4.669-0.631,5.107-2.57c0-0.039,0.787-0.039,0.787,0.08c-0.119,0.747-0.43,2.689-0.631,3.284
				C221.242,68.589,221.047,68.706,220.531,68.706"/>
			<path fill="#FFFFFF" d="M245.065,60.16c-0.594,0-0.793,0-1.147-0.037v3.323c0,3.561,0.275,4.272,2.964,4.509
				c0.12,0,0.199,0.831-0.037,0.751c-0.912-0.117-2.927-0.155-4.194-0.155c-1.74,0-3.679,0-4.945,0.155
				c-0.24,0.08-0.12-0.751,0-0.751c2.57-0.274,3.045-0.752,3.045-4.509v-8.942c0-3.443-0.632-4.195-2.019-4.195
				c-0.316,0-0.673,0.042-1.104,0.121c-0.162,0.077-0.36-0.674-0.119-0.716c1.263-0.395,4.786-0.552,8.027-0.552
				c5.345,0,8.191,1.702,8.191,4.868c0,1.977-1.424,3.917-3.758,4.905c1.583,4.039,5.343,9.495,8.782,9.495
				c0.12,0,0.239,0.753,0,0.753c-6.486,0-10.163-4.589-11.472-9.258C246.566,60.042,245.657,60.16,245.065,60.16 M244.153,50.388
				c-0.159,0.556-0.236,1.701-0.236,3.84v4.748c0.354,0,0.59,0.038,1.105,0.038c3.919,0,5.463-1.503,5.463-4.194
				c0-3.325-1.898-4.511-5.345-4.511C244.707,50.309,244.587,50.351,244.153,50.388z"/>
			<path fill="#FFFFFF" d="M272.661,67.324c-0.168-0.107-0.188-2.326-0.205-4.427c-0.016-0.197,0.703-0.164,0.71-0.088
				c0.427,2.987,2.16,5.255,5.237,5.057c2.135-0.135,3.513-1.495,3.393-3.391c-0.318-4.933-9.004-4.375-9.355-9.784
				c-0.172-2.725,2.094-5.688,5.727-5.921c1.733-0.109,2.875,0.335,3.939,0.858c0.248,0.141,0.669,1.742,0.797,3.754
				c0.01,0.119-0.782,0.169-0.791,0.05c-0.491-2.146-2.008-3.556-4.142-3.419c-1.858,0.119-3.179,1.116-3.064,2.932
				c0.306,4.739,8.826,4.07,9.193,9.755c0.208,3.239-2.138,6.204-5.891,6.448C276.036,69.288,274.284,68.53,272.661,67.324"/>
			<path fill="#FFFFFF" d="M305.226,68.55c-1.781,0-3.683,0-4.947,0.155c-0.315,0.08-0.117-0.751-0.04-0.751
				c2.612-0.274,3.009-0.79,3.009-4.509v-8.942c0-3.76-0.397-4.273-3.009-4.548c-0.077,0-0.237-0.794,0.083-0.753
				c1.222,0.198,3.123,0.198,4.904,0.198c1.188,0,3.246-0.082,4.154-0.198c0.32-0.041,0.156,0.753,0.079,0.753
				c-2.729,0.197-3.005,1.027-3.005,4.548v8.942c0,3.519,0.275,4.272,3.005,4.509c0.077,0,0.241,0.794-0.079,0.751
				C308.472,68.589,306.413,68.55,305.226,68.55"/>
			<path fill="#FFFFFF" d="M343.051,53.119c0,0.119-0.717,0.081-0.717,0c-0.275-1.304-1.306-2.216-4.467-2.216h-1.908v12.543
				c0,3.519,0.241,4.272,3.008,4.509c0.117,0,0.198,0.794-0.118,0.751c-0.914-0.117-2.93-0.155-4.195-0.155
				c-1.702,0-3.641,0-4.867,0.155c-0.315,0.08-0.158-0.751-0.04-0.751c2.614-0.274,3.007-0.79,3.007-4.509V50.903h-2.062
				c-3.045,0-4.234,0.871-4.625,2.256c-0.164,0.041-0.758,0.041-0.717-0.08c0.121-0.633,0.147-2.182,0.147-3.013
				c0-0.123-0.071-0.325-0.11-0.505c-0.023-0.124,0.635-0.134,0.713-0.041c0.298,0.343,0.318,0,4.592,0h7.177
				c4.233,0,4.43,0.36,4.669,0c0.07-0.105,0.79-0.08,0.711,0.08c-0.158,0.631-0.24,0.671-0.24,1.66
				C343.007,51.735,343.007,52.721,343.051,53.119"/>
			<path fill="#FFFFFF" d="M377.701,50.115c-4.827,0-8.35,5.93-8.35,12.58v0.751c0,3.561,0.24,4.272,2.968,4.509
				c0.123,0,0.199,0.831-0.035,0.751c-0.95-0.117-2.967-0.155-4.196-0.155c-1.739,0-3.683,0-4.946,0.155
				c-0.316,0.08-0.117-0.751-0.039-0.751c2.61-0.274,3.047-0.79,3.047-4.509v-0.751c0-7.241-3.957-12.542-8.587-12.542
				c-0.396,0-0.751,0.038-1.107,0.117c-0.081,0-0.277-0.676-0.041-0.712c0.99-0.355,2.059-0.595,3.007-0.595
				c4.394,0,8.032,3.403,9.222,7.832c1.777-4.941,4.944-7.634,8.507-7.634c0.634,0,2.003,0.157,2.634,0.396
				c0.238,0.036,0,0.793-0.156,0.712C379.153,50.153,378.218,50.115,377.701,50.115"/>
		</g>
	</g>
	<g>
		<g>
			<g>
				<path fill="#FFFFFF" d="M429.598,77.487l-0.141-0.16c-0.105-0.179-0.042-0.455,0.031-0.583l0.066-0.118l0.327-0.053
					c1.966-0.211,1.966-0.211,1.966-3.359v-6.852c0-3.172,0-3.172-1.968-3.403l-0.182-0.022c-0.002,0-0.002,0-0.004,0
					c-0.223,0-0.303-0.333-0.303-0.494c0-0.088,0.02-0.167,0.062-0.228c0.059-0.096,0.16-0.146,0.275-0.146
					c1.547,0.102,3.697,0.158,6.251,0.158c1.821,0,3.313-0.052,4.573-0.157l0.342-0.031l-0.105,0.329
					c-0.123,0.394-0.151,0.77-0.151,1.255c0,0.221,0,0.664,0.023,0.84l0.013,0.098l-0.07,0.109
					c-0.065,0.081-0.172,0.121-0.321,0.121c-0.119,0-0.406-0.023-0.478-0.225c-0.148-0.805-0.339-1.148-3.436-1.148h-1.992
					c-0.073,0.651-0.086,1.738-0.086,2.83v2.693h2.124c2.122,0,2.144-0.116,2.214-0.456l0.03-0.144
					c0.028-0.091,0.103-0.206,0.321-0.206c0,0,0.373,0.008,0.5,0.148l0.086,0.094l-0.031,0.122c-0.078,0.3-0.127,0.819-0.127,1.358
					c0,0.241,0,0.683,0.02,0.861l0.012,0.084l-0.052,0.106c-0.063,0.101-0.184,0.148-0.366,0.148c-0.172,0-0.389-0.039-0.453-0.217
					c-0.111-0.592-0.158-0.825-2.153-0.825h-2.124v3.108c0,3.011,0.398,3.011,1.188,3.011h1.211c3.447,0,3.511-0.277,3.815-1.623
					c-0.005-0.047,0.045-0.209,0.366-0.209c0.212,0,0.358,0.049,0.438,0.146l0.07,0.082l-0.013,0.144
					c-0.087,0.552-0.292,1.638-0.44,2.143c-0.147,0.547-0.404,0.646-0.857,0.646c-0.35,0-0.811-0.021-1.35-0.043
					c-0.753-0.034-1.66-0.072-2.648-0.072c-2.009,0-4.542,0.016-6.308,0.139H429.598L429.598,77.487z"/>
			</g>
			<g>
				<path fill="#FFFFFF" d="M447.847,77.805c-1.634,0-3-0.502-4.303-1.582c-0.156-0.128-0.151-0.336-0.049-1.738
					c0.034-0.434,0.076-0.936,0.102-1.466c0-0.038,0.021-0.299,0.439-0.299c0.402,0,0.433,0.221,0.433,0.288
					c0.163,2.334,1.438,3.629,3.586,3.629c1.294,0,2.807-0.64,2.807-2.44c0-1.72-1.553-2.624-3.201-3.581
					c-1.805-1.05-3.67-2.134-3.67-4.392c0-2.15,1.898-4.454,4.728-4.454c1.505,0,2.411,0.384,3.1,0.761
					c0.307,0.151,0.463,1.056,0.463,2.688c0,0.073-0.033,0.312-0.459,0.312l-0.388-0.064l-0.07-0.226
					c-0.246-1.509-1.227-2.326-2.829-2.326c-1.217,0-2.51,0.735-2.51,2.098c0,1.604,1.468,2.454,3.022,3.357
					c1.743,1.008,3.716,2.156,3.716,4.567C452.763,75.669,450.603,77.805,447.847,77.805L447.847,77.805z"/>
			</g>
			<g>
				<path fill="#FFFFFF" d="M457.167,77.49c-0.141,0-0.293-0.103-0.314-0.326c-0.021-0.202,0.058-0.519,0.294-0.567
					c1.919-0.196,1.919-0.196,1.919-3.383v-9.635h-0.444c-2.596,0-2.688,0.365-2.909,1.244l-0.072,0.271l-0.131,0.03
					c-0.075,0.019-0.178,0.021-0.219,0.021c-0.219,0-0.34-0.04-0.409-0.137l-0.068-0.096l0.034-0.131
					c0.062-0.331,0.1-0.973,0.1-1.821c0-0.331-0.03-0.477-0.083-0.722l-0.042-0.208l0.05-0.108c0.086-0.138,0.275-0.165,0.422-0.165
					c0.169,0,0.284,0.037,0.353,0.117c0.427,0.47,0.597,0.48,2.087,0.458l4.127-0.013c0.465,0.004,0.854,0.013,1.186,0.021
					c1.41,0.034,1.681,0.005,1.956-0.432c0.029-0.047,0.094-0.146,0.4-0.146c0.181,0,0.302,0.048,0.369,0.146l0.069,0.099
					l-0.041,0.147c-0.106,0.498-0.167,0.774-0.167,1.514c0,0.334,0,0.895,0.041,1.15l0.016,0.094l-0.061,0.092
					c-0.046,0.068-0.134,0.137-0.41,0.137c-0.105,0-0.411,0-0.411-0.263l-0.022-0.074c-0.166-0.842-0.244-1.225-2.926-1.225h-0.324
					v9.635c0,3.235,0,3.235,1.907,3.381c0.004,0,0.004,0,0.004,0c0.202,0,0.316,0.234,0.316,0.464c0,0.253-0.15,0.429-0.363,0.429
					c-0.687-0.087-1.779-0.139-2.829-0.139c-1.35,0-2.381,0.023-3.354,0.135L457.167,77.49L457.167,77.49z"/>
			</g>
			<path fill="#FFFFFF" d="M465.087,76.013c0-0.683,0.527-1.333,1.331-1.333c0.743,0,1.304,0.62,1.304,1.271
				c0,0.685-0.591,1.335-1.366,1.335C465.614,77.286,465.087,76.665,465.087,76.013z"/>
			<g>
				<path fill="#FFFFFF" d="M483.78,77.62l-0.031-0.007c-0.674-0.091-1.711-0.091-2.624-0.091c-0.95,0-2.025,0-2.716,0.095
					c-0.133,0.014-0.255-0.053-0.307-0.203c-0.019-0.056-0.026-0.12-0.026-0.192c0-0.312,0.114-0.498,0.304-0.498
					c1.537-0.186,1.566-0.187,1.566-1.833v-4.103c0-1.231-0.199-1.325-0.477-1.325c-0.17,0-0.408,0.052-0.727,0.159
					c-0.254,0.012-0.389-0.153-0.439-0.297c-0.065-0.186-0.024-0.365,0.103-0.467l0.268-0.151c0.959-0.538,2.276-1.273,2.996-1.947
					l0.067-0.062l0.113-0.011c0.145,0,0.365,0.111,0.466,0.231l0.067,0.086l0.008,0.183c-0.113,0.449-0.14,2.487-0.14,3.502v4.201
					c0,1.647,0,1.647,1.568,1.835c0,0,0.001,0,0.004,0c0.159,0,0.271,0.185,0.271,0.494c0,0.381-0.245,0.4-0.293,0.4H483.78
					L483.78,77.62z"/>
			</g>
			<g>
				<path fill="#FFFFFF" d="M490.47,77.887c-2.77,0-4.94-1.86-4.94-4.235c0-1.76,1.258-3.331,3.463-4.361
					c-1.322-0.882-2.613-2.009-2.613-3.869c0-2.596,2.113-4.552,4.916-4.552c2.321,0,4.21,1.693,4.21,3.776
					c0,1.61-0.838,2.799-2.788,3.92c1.57,1.003,3.127,2.275,3.127,4.403C495.845,75.773,493.534,77.887,490.47,77.887L490.47,77.887
					z M490.242,70.054c-1.667,0.854-2.384,1.933-2.384,3.598c0,1.983,1.461,3.023,2.904,3.023c1.763,0,2.95-1.07,2.95-2.66
					c0-1.883-1.646-2.869-3.388-3.912L490.242,70.054L490.242,70.054z M490.858,62.059c-1.379,0-2.271,0.899-2.271,2.295
					c0,1.553,1.268,2.474,2.947,3.494c1.17-0.774,1.788-1.837,1.788-3.082C493.323,63.198,492.288,62.059,490.858,62.059
					L490.858,62.059z"/>
			</g>
			<g>
				<path fill="#FFFFFF" d="M506.565,77.619c-0.324,0-0.803-0.016-1.357-0.036c-0.778-0.027-1.712-0.061-2.603-0.061
					c-2.052,0-3.534,0-5.057,0.097l0,0c-0.278,0-0.403-0.354-0.444-0.504c-0.091-0.328,0.015-0.469,0.118-0.529
					c4.432-2.32,6.32-4.314,6.32-6.674c0-1.615-0.893-2.658-2.27-2.658c-1.012,0-1.786,0.374-2.678,1.289l-0.067,0.069l-0.146,0.02
					c-0.207,0-0.381-0.2-0.445-0.335c-0.068-0.147-0.06-0.29,0.025-0.396c1.22-1.667,2.605-2.515,4.112-2.515
					c2.24,0,3.869,1.577,3.869,3.747c0,2.201-2.178,4.588-4.531,6.156h2.628c2.29,0,2.459-0.18,2.585-1.443
					c0-0.161,0.16-0.253,0.465-0.253c0.354,0,0.406,0.172,0.406,0.275c0.079,0.601-0.125,2.796-0.226,3.167
					C507.206,77.289,507.056,77.619,506.565,77.619L506.565,77.619z"/>
			</g>
			<g>
				<path fill="#FFFFFF" d="M515.013,77.887c-3.763,0-5.477-2.965-5.477-5.717c0-4.017,3.401-9.064,10.996-11.292l0.092-0.013
					c0.231,0,0.371,0.225,0.404,0.428c0.033,0.211-0.049,0.383-0.213,0.438c-7.812,2.911-8.656,8.254-8.656,10.415
					c0,2.695,1.362,4.65,3.24,4.65c1.482,0,2.443-1.284,2.443-3.267c0-1.94-0.963-3.146-2.514-3.146
					c-0.393,0-0.939,0.209-1.166,0.354l-0.139,0.041c-0.23,0-0.496-0.348-0.529-0.481l-0.039-0.178l0.169-0.096
					c0.663-0.706,1.801-1.214,2.771-1.214c2.593,0,3.992,2.145,3.992,4.16C520.388,75.633,517.926,77.887,515.013,77.887
					L515.013,77.887z"/>
			</g>
		</g>
		<rect x="75.697" y="75.951" fill="#FFFFFF" width="346.1" height="1.604"/>
	</g>
</g>
<path fill="#FFFFFF" d="M55.498,27.438c-0.521-0.019-0.523,0.635-0.523,0.635l-1.081,40.229l-24.887-0.216
	c-0.801-2.552-2.414-6.23-3.202-7.981l21.508,5.492v-0.003c0.037,0.006,0.072,0.012,0.112,0.012c0.275,0,0.499-0.23,0.499-0.517
	c0-0.221-0.134-0.406-0.324-0.479l0.002-0.009c-0.188-0.069-15.182-5.481-21.193-7.65l22.835-1.076v-0.01
	c0.263-0.016,0.47-0.239,0.47-0.513c0-0.273-0.208-0.495-0.47-0.511v-0.008l-23.714-1.04l23.5-8.851v-0.005
	c0.177-0.079,0.306-0.261,0.306-0.476c0-0.285-0.225-0.515-0.501-0.515c-0.04,0-0.079,0.006-0.114,0.015l-0.004-0.011l-24.777,6.999
	l25.397-21.234c0.118-0.093,0.193-0.236,0.193-0.4c0-0.285-0.226-0.516-0.499-0.516c-0.138,0-0.219,0.061-0.35,0.15L22.331,48.124
	l24.401-36.22c0.055-0.084,0.087-0.185,0.087-0.294c0-0.285-0.221-0.515-0.501-0.515c-0.184,0-0.291,0.074-0.427,0.257
	l-26.254,34.72l9.528-32.66c0.015-0.048,0.026-0.101,0.026-0.153c0-0.287-0.223-0.518-0.499-0.518c-0.226,0-0.412,0.152-0.475,0.36
	L16.681,44.607c0,0-0.311-28.881-0.311-28.885c0-0.284-0.225-0.515-0.501-0.515c-0.276,0-0.501,0.231-0.501,0.515
	c0,0.004,0,0.01,0,0.014c-0.066,0.985-1.473,21.532-1.943,28.376L6.561,23.47c-0.097-0.333-0.289-0.603-0.674-0.513
	c-0.489,0.114-0.319,0.746-0.319,0.746l4.72,21.085c-2.353-1.144-4.871-2.053-7.517-2.702L2.118,2.371l28.406-1.329
	c0,0,0.676,0.031,0.676-0.509c0-0.575-0.696-0.533-0.696-0.533H0l0.226,70.697l55.763-0.229v-42.38
	C55.988,28.088,56.006,27.456,55.498,27.438z M3.197,67.861L2.812,44.389c13.694,5.044,20.696,15.477,24.202,23.681L3.197,67.861z"
	/>
</svg>
